#!OML:ASF I:\Actors\actors\Patient Classification 2\Patient 1\Session 1\actor1.ASF
:FULLY-SPECIFIED
:DEGREES
259
root -0.274256 18.7749 5.65729 6.69193 12.7489 1.20333
lowerback 10.294 5.728 3.59183
upperback -0.238316 8.17771 2.03449
thorax -5.79189 3.94242 -1.08586
lowerneck -11.6785 -11.7602 -10.0184
upperneck 10.7116 -14.9898 6.00969
head 6.35445 -7.27067 2.00604
rclavicle 1.76322e-013 1.11319e-014
rhumerus -7.03529 10.9543 -60.5057
rradius 79.4498
rwrist -47.8213
rhand -2.19996 -52.3322
rfingers 7.12502
rthumb 23.4816 -80.9191
lclavicle 1.76322e-013 1.11319e-014
lhumerus -50.7811 -8.61013 91.6569
lradius 56.0894
lwrist 11.2051
lhand -6.27003 -23.4501
lfingers 7.12502
lthumb 19.5728 5.58469
rfemur 0 0 0
rtibia 0
rfoot 0 0
rtoes 0
lfemur -14.0117 -8.18613 -15.0758
ltibia 23.2089
lfoot -16.8982 4.07373
ltoes -55.8023
260
root -0.271783 18.7738 5.66525 6.70311 13.2923 1.10477
lowerback 10.2599 5.60068 3.64391
upperback -0.303437 8.02408 2.14715
thorax -5.85675 3.8651 -0.977308
lowerneck -11.3582 -11.743 -10.1028
upperneck 10.5748 -14.9774 6.01632
head 6.26388 -7.27621 2.04293
rclavicle -1.28017e-013 -7.95139e-015
rhumerus -8.85186 11.6185 -59.0364
rradius 85.733
rwrist -50.5533
rhand -2.25006 -52.8124
rfingers 7.12502
rthumb 23.4335 -81.4055
lclavicle -1.28017e-013 -7.95139e-015
lhumerus -51.3357 -8.27723 91.6028
lradius 56.8834
lwrist 11.7091
lhand -6.70428 -24.1739
lfingers 7.12502
lthumb 19.1552 4.90276
rfemur 0 0 0
rtibia 0
rfoot 0 0
rtoes 0
lfemur -14.1534 -8.4023 -14.9103
ltibia 23.264
lfoot -16.8497 3.71788
ltoes -55.7017
261
root -0.270644 18.7725 5.66775 6.74843 14.0004 1.03951
lowerback 10.3554 5.44953 3.76994
upperback -0.401894 7.85341 2.21417
thorax -6.01347 3.77303 -0.968853
lowerneck -10.9974 -11.7764 -10.1444
upperneck 10.4059 -15.0367 5.97259
head 6.15473 -7.3192 2.05302
rclavicle 5.80451e-014 0
rhumerus -11.3976 11.7017 -57.8924
rradius 92.4998
rwrist -52.107
rhand -2.8032 -52.3239
rfingers 7.12502
rthumb 22.9028 -80.9837
lclavicle 5.80451e-014 0
lhumerus -51.9304 -8.01651 91.4693
lradius 57.6754
lwrist 12.0695
lhand -7.05142 -25.3078
lfingers 7.12502
lthumb 18.8214 3.80166
rfemur 0 0 0
rtibia 0
rfoot 0 0
rtoes 0
lfemur -14.3986 -8.62402 -14.7653
ltibia 23.3416
lfoot -16.7218 3.24962
ltoes -55.7008
262
root -0.272182 18.7715 5.66623 6.80756 14.95 1.05011
lowerback 10.5131 5.23055 3.92175
upperback -0.476565 7.5957 2.24031
thorax -6.17453 3.63645 -1.00818
lowerneck -10.6298 -11.8278 -10.1504
upperneck 10.1533 -15.1266 5.95606
head 6.01993 -7.37424 2.06585
rclavicle -1.13108e-013 -1.11319e-014
rhumerus -14.9163 10.8411 -57.3506
rradius 99.4316
rwrist -52.3014
rhand -2.42275 -51.6251
rfingers 7.12502
rthumb 23.2679 -80.2392
lclavicle -1.13108e-013 -1.11319e-014
lhumerus -52.44 -7.85878 91.316
lradius 58.5883
lwrist 12.4021
lhand -7.15256 -25.7779
lfingers 7.12502
lthumb 18.7241 3.34093
rfemur 0 0 0
rtibia 0
rfoot 0 0
rtoes 0
lfemur -14.7211 -8.96635 -14.6704
ltibia 23.439
lfoot -16.4943 2.72246
ltoes -55.7322
263
root -0.276213 18.7729 5.6605 6.9418 15.9415 1.03699
lowerback 10.5497 5.0043 4.05448
upperback -0.484195 7.3202 2.32768
thorax -6.2087 3.49755 -0.954112
lowerneck -10.258 -11.8988 -10.2979
upperneck 9.74789 -15.2303 6.05731
head 5.85793 -7.43384 2.13705
rclavicle -2.68359e-014 -1.90833e-014
rhumerus -15.4392 12.067 -54.5791
rradius 104.926
rwrist -54.2026
rhand -2.94812 -50.4174
rfingers 7.12502
rthumb 22.7638 -79.0944
lclavicle -2.68359e-014 -1.90833e-014
lhumerus -52.8097 -7.72556 91.2781
lradius 59.6479
lwrist 12.7961
lhand -6.99 -25.801
lfingers 7.12502
lthumb 18.8804 3.30272
rfemur 0 0 0
rtibia 0
rfoot 0 0
rtoes 0
lfemur -15.173 -9.40442 -14.5199
ltibia 23.5556
lfoot -16.2506 2.27095
ltoes -55.7182
